<?xml version="1.0" encoding="utf-8"?>
<!-- Generator: Adobe Illustrator 18.0.0, SVG Export Plug-In . SVG Version: 6.00 Build 0)  -->
<!DOCTYPE svg PUBLIC "-//W3C//DTD SVG 1.1//EN" "http://www.w3.org/Graphics/SVG/1.1/DTD/svg11.dtd">
<svg version="1.1" id="Layer_1" xmlns="http://www.w3.org/2000/svg" xmlns:xlink="http://www.w3.org/1999/xlink" x="0px" y="0px"
	 viewBox="0 0 64 64" enable-background="new 0 0 64 64" xml:space="preserve">
<g>
	<g>
		<g>
			<path fill="#2ECC71" d="M32,0c17.7,0,32,14.3,32,32S49.7,64,32,64S0,49.7,0,32S14.3,0,32,0z"/>
		</g>
	</g>
	<g>
		<g>
			<path fill="#FFFFFF" d="M18,26.5c0-1.9,1.3-3.5,3-3.5h21v5.5l9-7.5l-9-8v5H22c-6.1,0-9,3.9-9,8.5V33h5V26.5z"/>
		</g>
	</g>
	<g>
		<g>
			<path fill="#FFFFFF" d="M46,37.5c0,1.9-1.3,3.5-3,3.5H22v-5.5L13,43l9,8v-5h20c6.1,0,9-3.9,9-8.5V31h-5V37.5z"/>
		</g>
	</g>
</g>
</svg>
